Coordinates
version=1
nRows=14
nColumns=36
inDegrees=yes

Units are S.I. units (second, meters, Newtons, ...)
If the header above contains a line with 'inDegrees', this indicates whether rotational values are in degrees (yes) or radians (no).

endheader
time	pelvis_tilt	pelvis_list	pelvis_rotation	pelvis_tx	pelvis_ty	pelvis_tz	hip_flexion_r	hip_adduction_r	hip_rotation_r	knee_angle_r	knee_angle_r_beta	ankle_angle_r	subtalar_angle_r	mtp_angle_r	hip_flexion_l	hip_adduction_l	hip_rotation_l	knee_angle_l	knee_angle_l_beta	ankle_angle_l	subtalar_angle_l	mtp_angle_l	lumbar_extension	lumbar_bending	lumbar_rotation	arm_flex_r	arm_add_r	arm_rot_r	elbow_flex_r	pro_sup_r	arm_flex_l	arm_add_l	arm_rot_l	elbow_flex_l	pro_sup_l
      2.31666670	     -5.53768557	     -1.25216950	      2.67314482	      0.48063935	      1.16952979	      0.23379257	     20.64948924	     -7.95031048	     -3.35430516	      9.59903633	      0.16753479	    -17.04612279	      7.44437602	     -7.49999983	     23.36471065	    -10.88243124	     -7.53428553	     11.52656443	      0.20117650	    -23.50791297	     -3.67273215	     -7.49999983	    -13.71525242	      1.47887283	      0.26424293	    -46.64256341	    -29.11307307	      2.49053355	    129.20167292	     91.64678995	    -35.15280015	    -32.90846633	    -36.45403358	    143.20489438	     88.24029456
      2.33333330	     -5.17482237	     -1.28266310	      2.54782410	      0.50310016	      1.12907076	      0.22328563	     21.50998195	     -8.25560677	     -3.44825551	     10.06155107	      0.17560719	    -17.11778509	      6.70117481	     -7.49999983	     24.11498500	    -11.10434751	     -6.96751652	     11.69626859	      0.20413840	    -23.57400445	     -4.20963974	     -7.49999983	    -14.23758090	      1.76659211	      0.69884548	    -49.62747549	    -28.04856432	      0.28245256	    128.45374982	     91.39632700	    -39.43932526	    -32.99473867	    -38.52231982	    143.63048906	     87.96207829
      2.35000000	     -4.22719884	     -1.15471992	      1.88332878	      0.51484847	      1.08946508	      0.21902477	     23.08588678	     -8.64974055	     -3.24473187	     12.54243509	      0.21890679	    -17.10446437	      6.46753806	     -7.49999983	     25.20368184	    -11.32072242	     -6.38116536	     13.49697824	      0.23556671	    -22.91480056	     -4.86250249	     -7.49999983	    -15.89088541	      1.94191204	      1.41683774	    -50.39862137	    -27.59602896	     -0.10749769	    127.42069955	     90.63015972	    -41.29447781	    -32.13700930	    -37.95381056	    143.12067431	     87.45756029
      2.36666670	     -3.22299765	     -1.01944615	      1.77731399	      0.52518019	      1.05136777	      0.21991323	     24.68038154	     -9.00898663	     -3.17137300	     15.79710076	      0.27571142	    -15.68375842	      6.01581526	     -7.49999984	     26.92458374	    -11.49712806	     -5.43356492	     16.91122925	      0.29515663	    -20.66688568	     -6.30068701	     -7.49999984	    -17.98017741	      2.10865970	      1.59872330	    -48.87415912	    -25.97523030	     -0.45790673	    124.96003403	     91.83715167	    -40.50604026	    -31.95042804	    -35.40067004	    139.86050361	     90.34946918
      2.38333330	     -2.39700486	     -0.47796047	      1.42268678	      0.53561900	      1.01121028	      0.20956119	     27.97415949	     -9.92423282	     -2.54269554	     23.17216857	      0.40443064	     -9.98882852	      4.63818399	     -7.49999985	     29.86793171	    -11.33407436	     -4.64408696	     24.13196375	      0.42118222	    -14.43170386	     -8.53582253	     -7.49999985	    -20.63407682	      1.97069203	      1.60140000	    -45.12647085	    -24.43520205	     -0.78352265	    122.79292069	     91.49977667	    -37.41178548	    -30.89823476	    -31.37333196	    136.54034344	     91.73722483
      2.40000000	     -2.45122846	      0.15210634	      1.00844223	      0.54891076	      0.97045797	      0.20267695	     33.17936730	    -10.98605103	     -1.18591435	     33.10629239	      0.57781381	     -2.52719638	      1.64226932	     -7.49999986	     34.39411711	    -10.82645849	     -3.09725142	     33.21785417	      0.57976093	     -5.80339783	    -11.17300529	     -7.49999986	    -22.45302561	      2.01295131	      1.19590048	    -39.41486991	    -23.07507810	     -0.72353667	    119.04428504	     90.54330742	    -33.70109278	    -28.51780184	    -26.20763760	    131.75746209	     93.69097496
      2.41666670	     -3.05442719	      1.18566325	      0.58496303	      0.55268664	      0.93586107	      0.20161039	     40.13111835	    -12.05369894	      1.27234741	     44.46414690	      0.77604576	      4.84505285	     -1.45886881	     -7.49999987	     40.50243985	    -10.12474664	     -2.16633044	     43.83474364	      0.76506060	      2.17560221	    -12.98756806	     -7.49999987	    -24.49860614	      1.40333913	      1.33141862	    -32.69094201	    -21.89977985	      0.18640733	    115.27825363	     89.20302579	    -28.14641790	    -26.54272679	    -21.41176354	    125.95382051	     94.60652124
      2.43333330	     -3.78979726	      2.01427371	      0.45339275	      0.55141130	      0.91422973	      0.20283421	     46.44235454	    -12.58470676	      3.58686070	     54.40439724	      0.94953586	     10.82546127	     -3.57591757	     -7.49999987	     46.74708299	     -9.79272462	     -1.75946160	     53.58398332	      0.93521694	      7.99587619	    -13.75090562	     -7.49999987	    -27.83219883	      0.88441434	      0.39520837	    -23.27257609	    -20.68593412	      2.24084419	    110.99509979	     89.14808550	    -21.11905547	    -24.11059465	    -16.87433983	    120.22797851	     94.81491254
      2.45000000	     -4.92401903	      2.35442620	      0.37932828	      0.55227601	      0.87905106	      0.20291804	     52.72619539	    -12.60304404	      5.31437298	     63.27318351	      1.10432538	     15.16840300	     -5.17130005	     -7.49999987	     52.91987702	    -10.10677005	     -1.36284680	     62.06563149	      1.08324962	     11.94093690	    -14.68428646	     -7.49999987	    -30.88084273	      0.68791145	     -0.20481088	    -13.22271495	    -19.59815829	      4.30667100	    109.05786890	     87.05906240	    -12.18841664	    -23.04498556	    -11.91440544	    117.31321771	     92.54708504
      2.46666670	     -6.11508840	      2.46844495	      0.32836151	      0.55615947	      0.86020825	      0.20139682	     57.28530821	    -12.68075039	      6.28518670	     69.26380023	      1.20888137	     17.98212978	     -6.10619011	     -7.49999987	     57.43726356	    -10.36145263	     -1.03032513	     67.86661147	      1.18449582	     14.44196212	    -15.39280079	     -7.49999987	    -34.16208136	      1.04199638	      1.81880221	     -4.87144278	    -18.93759857	      3.55151050	    109.65045532	     88.01338513	      1.47528291	    -21.50295555	     -3.82655703	    113.54015486	     93.23987227
      2.48333330	     -8.01916199	      2.45509677	      0.49430251	      0.55823227	      0.83245521	      0.20048138	     62.27481094	    -12.83276688	      7.12141688	     74.57300950	      1.30154455	     20.20247880	     -6.72167546	     -7.49999987	     62.22868381	    -10.55561236	     -0.48767665	     72.74854587	      1.26970165	     16.64940333	    -15.52749373	     -7.49999987	    -37.41347891	      1.08175775	      2.04418662	      4.75478001	    -19.48539032	      5.65679217	    111.88874242	     90.96848179	     12.89949324	    -20.13964632	      2.17514996	    113.39832115	     94.52422674
      2.50000000	    -10.79701659	      2.44342719	      0.79997904	      0.54775767	      0.81840612	      0.19495508	     67.47870543	    -13.33306561	      7.46726587	     77.94431203	      1.36038488	     21.23910769	     -6.70990351	     -7.49999987	     67.17715817	    -10.53947453	     -0.34587149	     75.75748302	      1.32221751	     18.24823446	    -15.04870940	     -7.49999987	    -40.44264258	      1.38985136	      1.93457410	     16.65610323	    -21.79351976	      9.10369764	    115.33519321	     92.25405765	     25.12688659	    -18.52013302	      7.22771591	    114.82508854	     94.79475479
      2.51666670	    -13.49087422	      2.16903590	      0.99854168	      0.55153960	      0.78755391	      0.20079881	     72.75753545	    -13.46427498	      7.63242434	     81.62119826	      1.42455865	     22.46429419	     -6.76039661	     -7.49999987	     72.24084145	    -10.94739637	      0.29838911	     78.90015969	      1.37706757	     19.50349137	    -14.82455528	     -7.49999987	    -42.61428620	      1.28050516	      3.83247934	     27.59540163	    -23.88532050	      9.64727236	    120.94609599	    101.75528329	     38.21073611	    -15.98561360	     13.47590913	    113.96686542	     96.50211466
      2.53333330	    -16.41770993	      1.93093450	      1.00011988	      0.55792716	      0.77646882	      0.19218203	     77.39472067	    -13.86242007	      7.59645749	     83.95780590	      1.46534015	     23.40104990	     -6.37100744	     -7.49999987	     76.67792842	    -11.37156497	      0.53842692	     81.13740176	      1.41611481	     20.99072511	    -13.98153940	     -7.49999987	    -44.50326703	      1.61341756	      3.57845158	     40.71255400	    -25.94863881	     13.88857462	    122.41299714	    104.82690435	     47.55426075	    -14.35150674	     16.98495257	    114.67213564	     97.24470350
